# xmcd
#
# Track frame offsets:
#	150
#	13496
#	28236
#	42057
#	56295
#	68611
#	82209
#	96587
#	109320
#	121135
#	131835
#	144345
#	158277
#	168559
#	180401
#	191853
#	205172
#	214702
#	225430
#	235544
#	246829
#	259312
#	271851
#	283972
#	295786
#
# Disc length: 4102 seconds
#
# Revision: 2
# Processed by: cddbd v1.5.2PL0 Copyright (c) Steve Scherf et al.
# Submitted via: EZCDAudioConverter 7.0.9.1
#
DISCID=6e100419
DTITLE=Various Artist - Triomphes du Blues 06_Country Blues
DYEAR=2001
DGENRE=Blues
TTITLE0=Sleepy John Estes - The Girl I Love Got Long Curly Hair
TTITLE1=Sleepy John Estes - Diving Duck Blues
TTITLE2=Sleepy John Estes - Milk Cow Blues
TTITLE3=Sleepy John Estes - Down South Blues
TTITLE4=Sleepy John Estes - Stop That Thing
TTITLE5=Sleepy John Estes - Someday Baby Blues
TTITLE6=Sleepy John Estes - Drop Down Mama
TTITLE7=Sleepy John Estes - Everybody Ought To Make A Change
TTITLE8=Sleepy John Estes - Clean It Up At Home
TTITLE9=Sleepy John Estes - Time Is Drawing Near
TTITLE10=Sleepy John Estes - Drop Down
TTITLE11=Sleepy John Estes - Brownsville Blues
TTITLE12=Lightnin' Hopkins - Lightnin's Boogie
TTITLE13=Lightnin' Hopkins - Have To Let You Go
TTITLE14=Lightnin' Hopkins - Honey Babe
TTITLE15=Lightnin' Hopkins - Unpredictable Woman
TTITLE16=Lightnin' Hopkins - Feel So Bad
TTITLE17=Lightnin' Hopkins - Short Haired Woman
TTITLE18=Lightnin' Hopkins - Down Baby
TTITLE19=Lightnin' Hopkins - Let Me Play With Your Poodle
TTITLE20=Lightnin' Hopkins - Fast Mail Rambler
TTITLE21=Lightnin' Hopkins - Picture On The Wall
TTITLE22=Lightnin' Hopkins - Sugar On My Mind
TTITLE23=Lightnin' Hopkins - Someday Baby
TTITLE24=Lightnin' Hopkins - Come Back, Baby
EXTD=
EXTT0=
EXTT1=
EXTT2=
EXTT3=
EXTT4=
EXTT5=
EXTT6=
EXTT7=
EXTT8=
EXTT9=
EXTT10=
EXTT11=
EXTT12=
EXTT13=
EXTT14=
EXTT15=
EXTT16=
EXTT17=
EXTT18=
EXTT19=
EXTT20=
EXTT21=
EXTT22=
EXTT23=
EXTT24=
PLAYORDER=
